<svg xmlns="http://www.w3.org/2000/svg" enable-background="new 0 0 32 32" viewBox="0 0 32 32" id="brand-dot-ai"><path fill="#E3F8FA" d="M26,32H6c-3.314,0-6-2.686-6-6V6c0-3.314,2.686-6,6-6h20c3.314,0,6,2.686,6,6v20C32,29.314,29.314,32,26,32z"></path><path fill="#26C6DA" d="M8.016,16.499c0.082,1.336,0.489,2.584,1.149,3.663c0.667,1.099,1.589,2.021,2.683,2.691c1.199,0.716,2.598,1.137,4.087,1.147h0.12c4.229-0.029,7.665-3.329,7.926-7.499c0.009-0.16,0.02-0.331,0.02-0.49c0-0.159,0-0.33-0.011-0.49l-0.018-0.015l-0.001,0.001c-0.252-4.174-3.703-7.482-7.93-7.508h-0.095c-1.493,0.011-2.891,0.427-4.083,1.15c-1.101,0.666-2.029,1.59-2.698,2.691c-0.658,1.077-1.065,2.326-1.149,3.663C8.005,15.668,8,15.833,8,16.002C8,16.168,8.006,16.335,8.016,16.499z M9.165,15.054c0.417-3.042,2.812-5.451,5.846-5.884l0.077,0.007c0.533,0.029,0.977,0.287,0.913,1.844v2.554c-0.007,1.049,0.597,2.049,1.238,2.428c-0.641,0.374-1.245,1.251-1.239,2.424v0.003v2.555c0.064,1.561-0.38,1.821-0.913,1.845c-0.023,0-0.044,0.002-0.067,0.003c-3.037-0.43-5.438-2.84-5.856-5.886C9.121,16.637,9.098,16.321,9.098,16C9.098,15.679,9.121,15.364,9.165,15.054z"></path></svg>